<svg xmlns="http://www.w3.org/2000/svg" width="129" height="28" fill="none"><g fill="#fff" clip-path="url(#a)"><path d="M0 11.723C0 6.04 4.768 1.41 10.463 1.41a9.818 9.818 0 0 1 7.074 2.841L15.539 6.24a7.176 7.176 0 0 0-5.073-2.009c-4.148 0-7.39 3.34-7.39 7.497s3.237 7.495 7.39 7.495c2.69 0 4.223-1.081 5.205-2.063.805-.806 1.331-1.966 1.533-3.538h-6.74v-2.83h9.478c.107.584.158 1.177.15 1.77 0 2.112-.576 4.728-2.438 6.59-1.815 1.879-4.13 2.875-7.19 2.875C4.767 22.026 0 17.408 0 11.722M27.75 19.419c-2.01 0-3.745-1.66-3.745-4.025 0-2.366 1.733-4.024 3.744-4.024s3.742 1.635 3.742 4.027c0 2.393-1.733 4.023-3.742 4.023v-.001Zm0-10.663c-3.669 0-6.662 2.795-6.662 6.637 0 3.842 2.99 6.632 6.661 6.632 3.67 0 6.662-2.818 6.662-6.636 0-3.82-2.994-6.635-6.662-6.635v.002ZM42.28 19.419c-2.01 0-3.746-1.66-3.746-4.025 0-2.366 1.734-4.024 3.745-4.024s3.746 1.635 3.746 4.027c0 2.393-1.735 4.027-3.746 4.027v-.005Zm0-10.66c-3.668 0-6.663 2.795-6.663 6.637 0 3.843 2.992 6.633 6.662 6.633s6.662-2.818 6.662-6.637c0-3.819-2.992-6.638-6.662-6.638v.006ZM67.811 2.114h-2.917v19.52h2.917V2.113Z"/><path d="M67.811 2.114h-2.917v19.52h2.917V2.113ZM75.58 11.32c1.157 0 2.137.578 2.463 1.41l-5.932 2.464c-.077-2.567 1.986-3.873 3.468-3.873h.001Zm.225 8.1c-1.484 0-2.539-.68-3.217-2.008l8.876-3.674-.299-.748c-.553-1.485-2.236-4.225-5.68-4.225-3.446 0-6.26 2.692-6.26 6.637 0 3.722 2.816 6.636 6.587 6.636a6.6 6.6 0 0 0 5.53-2.947l-2.262-1.509c-.76 1.104-1.79 1.838-3.274 1.838ZM56.779 19.42c-2.009 0-3.696-1.685-3.696-3.998 0-2.314 1.684-4.05 3.696-4.05 2.01 0 3.534 1.71 3.534 4.05s-1.552 3.998-3.538 3.998h.004Zm3.335-10.263v1.08h-.1c-.654-.787-1.91-1.485-3.493-1.485-3.318 0-6.36 2.918-6.36 6.666s3.04 6.608 6.36 6.608c1.583 0 2.84-.699 3.493-1.509h.1v.955c0 2.54-1.357 3.899-3.535 3.899-1.785 0-2.89-1.283-3.339-2.358L50.7 24.07A6.323 6.323 0 0 0 56.593 28c3.42 0 6.31-2.009 6.31-6.917V9.157h-2.788ZM99.972 2.085H90.13v19.578h9.843V2.085ZM118.23 21.973c5.578 0 10.099-4.522 10.099-10.1 0-5.577-4.521-10.099-10.099-10.099s-10.099 4.522-10.099 10.1c0 5.577 4.521 10.099 10.099 10.099ZM103.2 23.747h-1.897L106.703 0h1.898L103.2 23.747Z"/></g><defs><clipPath id="a"><path fill="#fff" d="M0 0h128.329v28H0z"/></clipPath></defs></svg>